<?xml version="1.0" encoding="UTF-8" standalone="no"?>
<!DOCTYPE svg PUBLIC "-//W3C//DTD SVG 1.1//EN"
 "http://www.w3.org/Graphics/SVG/1.1/DTD/svg11.dtd">
<!-- Generated by graphviz version 2.43.0 (0)
 -->
<!-- Title: LLVMPipeline Pages: 1 -->
<svg width="421pt" height="4459pt"
 viewBox="0.00 0.00 421.00 4459.08" xmlns="http://www.w3.org/2000/svg" xmlns:xlink="http://www.w3.org/1999/xlink">
<g id="graph0" class="graph" transform="scale(1 1) rotate(0) translate(4 4455.08)">
<title>LLVMPipeline</title>
<polygon fill="white" stroke="transparent" points="-4,4 -4,-4455.08 417,-4455.08 417,4 -4,4"/>
<text text-anchor="middle" x="206.5" y="-4435.88" font-family="Courier New" font-size="14.00">LLVM Pass Pipeline with Fil&#45;C Additions</text>
<text text-anchor="middle" x="206.5" y="-4420.88" font-family="Courier New" font-size="14.00">Red = Fil&#45;C passes, Black = Standard LLVM passes</text>
<g id="clust1" class="cluster">
<title>cluster_filc</title>
<polygon fill="#ffe0e5" stroke="black" points="26.5,-2410.08 26.5,-4405.08 386.5,-4405.08 386.5,-2410.08 26.5,-2410.08"/>
<text text-anchor="middle" x="206.5" y="-4389.88" font-family="Courier New" font-size="14.00" fill="#c41230">Fil&#45;C Additions</text>
</g>
<g id="clust2" class="cluster">
<title>cluster_func1</title>
<polygon fill="none" stroke="#c41230" stroke-dasharray="5,2" points="84.5,-3823.08 84.5,-4114.08 328.5,-4114.08 328.5,-3823.08 84.5,-3823.08"/>
<text text-anchor="middle" x="206.5" y="-4098.88" font-family="Courier New" font-size="14.00" fill="#c41230">function&lt;eager&#45;inv&gt;</text>
</g>
<g id="clust3" class="cluster">
<title>cluster_cgscc1</title>
<polygon fill="none" stroke="#c41230" stroke-dasharray="5,2" points="34.5,-2482.08 34.5,-3607.08 378.5,-3607.08 378.5,-2482.08 34.5,-2482.08"/>
<text text-anchor="middle" x="206.5" y="-3591.88" font-family="Courier New" font-size="14.00" fill="#c41230">cgscc</text>
</g>
<g id="clust4" class="cluster">
<title>cluster_devirt</title>
<polygon fill="none" stroke="#c41230" stroke-dasharray="1,5" points="42.5,-2490.08 42.5,-3576.08 370.5,-3576.08 370.5,-2490.08 42.5,-2490.08"/>
<text text-anchor="middle" x="206.5" y="-3560.88" font-family="Courier New" font-size="14.00" fill="#c41230">devirt&lt;4&gt;</text>
</g>
<g id="clust5" class="cluster">
<title>cluster_func2</title>
<polygon fill="none" stroke="#c41230" stroke-dasharray="1,5" points="82.5,-2634.08 82.5,-3357.08 330.5,-3357.08 330.5,-2634.08 82.5,-2634.08"/>
<text text-anchor="middle" x="206.5" y="-3341.88" font-family="Courier New" font-size="14.00" fill="#c41230">function&lt;eager&#45;inv;no&#45;rerun&gt;</text>
</g>
<g id="clust6" class="cluster">
<title>cluster_llvm</title>
<polygon fill="#f0f0f0" stroke="black" points="21.5,-8 21.5,-2402.08 391.5,-2402.08 391.5,-8 21.5,-8"/>
<text text-anchor="middle" x="206.5" y="-2386.88" font-family="Courier New" font-size="14.00">Standard LLVM Pipeline</text>
</g>
<g id="clust7" class="cluster">
<title>cluster_func3</title>
<polygon fill="none" stroke="black" stroke-dasharray="5,2" points="120.5,-1892.08 120.5,-2255.08 293.5,-2255.08 293.5,-1892.08 120.5,-1892.08"/>
<text text-anchor="middle" x="207" y="-2239.88" font-family="Courier New" font-size="14.00">function&lt;eager&#45;inv&gt;</text>
</g>
<g id="clust8" class="cluster">
<title>cluster_func4</title>
<polygon fill="none" stroke="black" stroke-dasharray="5,2" points="102.5,-1385.08 102.5,-1604.08 310.5,-1604.08 310.5,-1385.08 102.5,-1385.08"/>
<text text-anchor="middle" x="206.5" y="-1588.88" font-family="Courier New" font-size="14.00">function&lt;eager&#45;inv&gt;</text>
</g>
<g id="clust9" class="cluster">
<title>cluster_cgscc2</title>
<polygon fill="none" stroke="black" stroke-dasharray="5,2" points="46.5,-984.54 46.5,-1097.08 366.5,-1097.08 366.5,-984.54 46.5,-984.54"/>
<text text-anchor="middle" x="206.5" y="-1081.88" font-family="Courier New" font-size="14.00">cgscc(devirt&lt;4&gt;(...))</text>
</g>
<g id="clust10" class="cluster">
<title>cluster_func5</title>
<polygon fill="none" stroke="black" stroke-dasharray="5,2" points="29.5,-368 29.5,-480.54 383.5,-480.54 383.5,-368 29.5,-368"/>
<text text-anchor="middle" x="206.5" y="-465.34" font-family="Courier New" font-size="14.00">function&lt;eager&#45;inv&gt;</text>
</g>
<!-- verify -->
<g id="node1" class="node">
<title>verify</title>
<polygon fill="#ffcccc" stroke="#c41230" points="233.5,-4374.08 179.5,-4374.08 179.5,-4338.08 233.5,-4338.08 233.5,-4374.08"/>
<text text-anchor="middle" x="206.5" y="-4353.58" font-family="Courier New" font-size="10.00" fill="#c41230">verify</text>
</g>
<!-- annotation2metadata -->
<g id="node2" class="node">
<title>annotation2metadata</title>
<polygon fill="#ffcccc" stroke="#c41230" points="272,-4302.08 141,-4302.08 141,-4266.08 272,-4266.08 272,-4302.08"/>
<text text-anchor="middle" x="206.5" y="-4281.58" font-family="Courier New" font-size="10.00" fill="#c41230">annotation2metadata</text>
</g>
<!-- verify&#45;&gt;annotation2metadata -->
<g id="edge18" class="edge">
<title>verify&#45;&gt;annotation2metadata</title>
<path fill="none" stroke="black" d="M206.5,-4337.77C206.5,-4330.06 206.5,-4320.79 206.5,-4312.19"/>
<polygon fill="black" stroke="black" points="210,-4312.18 206.5,-4302.18 203,-4312.18 210,-4312.18"/>
</g>
<!-- forceattrs -->
<g id="node3" class="node">
<title>forceattrs</title>
<polygon fill="#ffcccc" stroke="#c41230" points="245,-4230.08 168,-4230.08 168,-4194.08 245,-4194.08 245,-4230.08"/>
<text text-anchor="middle" x="206.5" y="-4209.58" font-family="Courier New" font-size="10.00" fill="#c41230">forceattrs</text>
</g>
<!-- annotation2metadata&#45;&gt;forceattrs -->
<g id="edge19" class="edge">
<title>annotation2metadata&#45;&gt;forceattrs</title>
<path fill="none" stroke="black" d="M206.5,-4265.77C206.5,-4258.06 206.5,-4248.79 206.5,-4240.19"/>
<polygon fill="black" stroke="black" points="210,-4240.18 206.5,-4230.18 203,-4240.18 210,-4240.18"/>
</g>
<!-- declare_to_assign -->
<g id="node4" class="node">
<title>declare_to_assign</title>
<polygon fill="#ffcccc" stroke="#c41230" points="266,-4158.08 147,-4158.08 147,-4122.08 266,-4122.08 266,-4158.08"/>
<text text-anchor="middle" x="206.5" y="-4137.58" font-family="Courier New" font-size="10.00" fill="#c41230">declare&#45;to&#45;assign</text>
</g>
<!-- forceattrs&#45;&gt;declare_to_assign -->
<g id="edge20" class="edge">
<title>forceattrs&#45;&gt;declare_to_assign</title>
<path fill="none" stroke="black" d="M206.5,-4193.77C206.5,-4186.06 206.5,-4176.79 206.5,-4168.19"/>
<polygon fill="black" stroke="black" points="210,-4168.18 206.5,-4158.18 203,-4168.18 210,-4168.18"/>
</g>
<!-- lower_expect1 -->
<g id="node5" class="node">
<title>lower_expect1</title>
<polygon fill="#ffcccc" stroke="#c41230" points="251,-4083.08 162,-4083.08 162,-4047.08 251,-4047.08 251,-4083.08"/>
<text text-anchor="middle" x="206.5" y="-4062.58" font-family="Courier New" font-size="10.00" fill="#c41230">lower&#45;expect</text>
</g>
<!-- declare_to_assign&#45;&gt;lower_expect1 -->
<g id="edge21" class="edge">
<title>declare_to_assign&#45;&gt;lower_expect1</title>
<path fill="none" stroke="black" d="M206.5,-4121.78C206.5,-4113.32 206.5,-4102.95 206.5,-4093.45"/>
<polygon fill="black" stroke="black" points="210,-4093.25 206.5,-4083.25 203,-4093.25 210,-4093.25"/>
</g>
<!-- simplifycfg1 -->
<g id="node6" class="node">
<title>simplifycfg1</title>
<polygon fill="#ffcccc" stroke="#c41230" points="320,-4011.08 93,-4011.08 93,-3975.08 320,-3975.08 320,-4011.08"/>
<text text-anchor="middle" x="206.5" y="-3996.08" font-family="Courier New" font-size="10.00" fill="#c41230">simplifycfg&lt;bonus&#45;inst&#45;threshold=1;</text>
<text text-anchor="middle" x="206.5" y="-3985.08" font-family="Courier New" font-size="10.00" fill="#c41230">no&#45;forward&#45;switch&#45;cond;...&gt;</text>
</g>
<!-- lower_expect1&#45;&gt;simplifycfg1 -->
<g id="edge1" class="edge">
<title>lower_expect1&#45;&gt;simplifycfg1</title>
<path fill="none" stroke="black" d="M206.5,-4046.77C206.5,-4039.06 206.5,-4029.79 206.5,-4021.19"/>
<polygon fill="black" stroke="black" points="210,-4021.18 206.5,-4011.18 203,-4021.18 210,-4021.18"/>
</g>
<!-- sroa1 -->
<g id="node7" class="node">
<title>sroa1</title>
<polygon fill="#ffcccc" stroke="#c41230" points="263,-3939.08 150,-3939.08 150,-3903.08 263,-3903.08 263,-3939.08"/>
<text text-anchor="middle" x="206.5" y="-3918.58" font-family="Courier New" font-size="10.00" fill="#c41230">sroa&lt;modify&#45;cfg&gt;</text>
</g>
<!-- simplifycfg1&#45;&gt;sroa1 -->
<g id="edge2" class="edge">
<title>simplifycfg1&#45;&gt;sroa1</title>
<path fill="none" stroke="black" d="M206.5,-3974.77C206.5,-3967.06 206.5,-3957.79 206.5,-3949.19"/>
<polygon fill="black" stroke="black" points="210,-3949.18 206.5,-3939.18 203,-3949.18 210,-3949.18"/>
</g>
<!-- early_cse1 -->
<g id="node8" class="node">
<title>early_cse1</title>
<polygon fill="#ffcccc" stroke="#c41230" points="248,-3867.08 165,-3867.08 165,-3831.08 248,-3831.08 248,-3867.08"/>
<text text-anchor="middle" x="206.5" y="-3846.58" font-family="Courier New" font-size="10.00" fill="#c41230">early&#45;cse&lt;&gt;</text>
</g>
<!-- sroa1&#45;&gt;early_cse1 -->
<g id="edge3" class="edge">
<title>sroa1&#45;&gt;early_cse1</title>
<path fill="none" stroke="black" d="M206.5,-3902.77C206.5,-3895.06 206.5,-3885.79 206.5,-3877.19"/>
<polygon fill="black" stroke="black" points="210,-3877.18 206.5,-3867.18 203,-3877.18 210,-3877.18"/>
</g>
<!-- require_globals_aa1 -->
<g id="node9" class="node">
<title>require_globals_aa1</title>
<polygon fill="#ffcccc" stroke="#c41230" points="272,-3795.08 141,-3795.08 141,-3759.08 272,-3759.08 272,-3795.08"/>
<text text-anchor="middle" x="206.5" y="-3774.58" font-family="Courier New" font-size="10.00" fill="#c41230">require&lt;globals&#45;aa&gt;</text>
</g>
<!-- early_cse1&#45;&gt;require_globals_aa1 -->
<g id="edge22" class="edge">
<title>early_cse1&#45;&gt;require_globals_aa1</title>
<path fill="none" stroke="black" d="M206.5,-3830.77C206.5,-3823.06 206.5,-3813.79 206.5,-3805.19"/>
<polygon fill="black" stroke="black" points="210,-3805.18 206.5,-3795.18 203,-3805.18 210,-3805.18"/>
</g>
<!-- func_invalidate_aa -->
<g id="node10" class="node">
<title>func_invalidate_aa</title>
<polygon fill="#ffcccc" stroke="#c41230" points="287,-3723.08 126,-3723.08 126,-3687.08 287,-3687.08 287,-3723.08"/>
<text text-anchor="middle" x="206.5" y="-3702.58" font-family="Courier New" font-size="10.00" fill="#c41230">function(invalidate&lt;aa&gt;)</text>
</g>
<!-- require_globals_aa1&#45;&gt;func_invalidate_aa -->
<g id="edge23" class="edge">
<title>require_globals_aa1&#45;&gt;func_invalidate_aa</title>
<path fill="none" stroke="black" d="M206.5,-3758.77C206.5,-3751.06 206.5,-3741.79 206.5,-3733.19"/>
<polygon fill="black" stroke="black" points="210,-3733.18 206.5,-3723.18 203,-3733.18 210,-3733.18"/>
</g>
<!-- require_profile_summary1 -->
<g id="node11" class="node">
<title>require_profile_summary1</title>
<polygon fill="#ffcccc" stroke="#c41230" points="287,-3651.08 126,-3651.08 126,-3615.08 287,-3615.08 287,-3651.08"/>
<text text-anchor="middle" x="206.5" y="-3630.58" font-family="Courier New" font-size="10.00" fill="#c41230">require&lt;profile&#45;summary&gt;</text>
</g>
<!-- func_invalidate_aa&#45;&gt;require_profile_summary1 -->
<g id="edge24" class="edge">
<title>func_invalidate_aa&#45;&gt;require_profile_summary1</title>
<path fill="none" stroke="black" d="M206.5,-3686.77C206.5,-3679.06 206.5,-3669.79 206.5,-3661.19"/>
<polygon fill="black" stroke="black" points="210,-3661.18 206.5,-3651.18 203,-3661.18 210,-3661.18"/>
</g>
<!-- inline_mandatory -->
<g id="node12" class="node">
<title>inline_mandatory</title>
<polygon fill="#ffcccc" stroke="#c41230" points="281,-3545.08 132,-3545.08 132,-3509.08 281,-3509.08 281,-3545.08"/>
<text text-anchor="middle" x="206.5" y="-3524.58" font-family="Courier New" font-size="10.00" fill="#c41230">inline&lt;only&#45;mandatory&gt;</text>
</g>
<!-- require_profile_summary1&#45;&gt;inline_mandatory -->
<g id="edge25" class="edge">
<title>require_profile_summary1&#45;&gt;inline_mandatory</title>
<path fill="none" stroke="black" d="M206.5,-3614.9C206.5,-3598.72 206.5,-3574.21 206.5,-3555.35"/>
<polygon fill="black" stroke="black" points="210,-3555.28 206.5,-3545.28 203,-3555.28 210,-3555.28"/>
</g>
<!-- inline1 -->
<g id="node13" class="node">
<title>inline1</title>
<polygon fill="#ffcccc" stroke="#c41230" points="233.5,-3473.08 179.5,-3473.08 179.5,-3437.08 233.5,-3437.08 233.5,-3473.08"/>
<text text-anchor="middle" x="206.5" y="-3452.58" font-family="Courier New" font-size="10.00" fill="#c41230">inline</text>
</g>
<!-- inline_mandatory&#45;&gt;inline1 -->
<g id="edge13" class="edge">
<title>inline_mandatory&#45;&gt;inline1</title>
<path fill="none" stroke="black" d="M206.5,-3508.77C206.5,-3501.06 206.5,-3491.79 206.5,-3483.19"/>
<polygon fill="black" stroke="black" points="210,-3483.18 206.5,-3473.18 203,-3483.18 210,-3483.18"/>
</g>
<!-- function_attrs1 -->
<g id="node14" class="node">
<title>function_attrs1</title>
<polygon fill="#ffcccc" stroke="#c41230" points="326,-3401.08 87,-3401.08 87,-3365.08 326,-3365.08 326,-3401.08"/>
<text text-anchor="middle" x="206.5" y="-3380.58" font-family="Courier New" font-size="10.00" fill="#c41230">function&#45;attrs&lt;skip&#45;non&#45;recursive...&gt;</text>
</g>
<!-- inline1&#45;&gt;function_attrs1 -->
<g id="edge14" class="edge">
<title>inline1&#45;&gt;function_attrs1</title>
<path fill="none" stroke="black" d="M206.5,-3436.77C206.5,-3429.06 206.5,-3419.79 206.5,-3411.19"/>
<polygon fill="black" stroke="black" points="210,-3411.18 206.5,-3401.18 203,-3411.18 210,-3411.18"/>
</g>
<!-- sroa2 -->
<g id="node15" class="node">
<title>sroa2</title>
<polygon fill="#ffcccc" stroke="#c41230" points="263,-3326.08 150,-3326.08 150,-3290.08 263,-3290.08 263,-3326.08"/>
<text text-anchor="middle" x="206.5" y="-3305.58" font-family="Courier New" font-size="10.00" fill="#c41230">sroa&lt;modify&#45;cfg&gt;</text>
</g>
<!-- function_attrs1&#45;&gt;sroa2 -->
<g id="edge15" class="edge">
<title>function_attrs1&#45;&gt;sroa2</title>
<path fill="none" stroke="black" d="M206.5,-3364.78C206.5,-3356.32 206.5,-3345.95 206.5,-3336.45"/>
<polygon fill="black" stroke="black" points="210,-3336.25 206.5,-3326.25 203,-3336.25 210,-3336.25"/>
</g>
<!-- early_cse_memssa -->
<g id="node16" class="node">
<title>early_cse_memssa</title>
<polygon fill="#ffcccc" stroke="#c41230" points="266,-3254.08 147,-3254.08 147,-3218.08 266,-3218.08 266,-3254.08"/>
<text text-anchor="middle" x="206.5" y="-3233.58" font-family="Courier New" font-size="10.00" fill="#c41230">early&#45;cse&lt;memssa&gt;</text>
</g>
<!-- sroa2&#45;&gt;early_cse_memssa -->
<g id="edge4" class="edge">
<title>sroa2&#45;&gt;early_cse_memssa</title>
<path fill="none" stroke="black" d="M206.5,-3289.77C206.5,-3282.06 206.5,-3272.79 206.5,-3264.19"/>
<polygon fill="black" stroke="black" points="210,-3264.18 206.5,-3254.18 203,-3264.18 210,-3264.18"/>
</g>
<!-- jump_threading1 -->
<g id="node17" class="node">
<title>jump_threading1</title>
<polygon fill="#ffcccc" stroke="#c41230" points="257,-3182.08 156,-3182.08 156,-3146.08 257,-3146.08 257,-3182.08"/>
<text text-anchor="middle" x="206.5" y="-3161.58" font-family="Courier New" font-size="10.00" fill="#c41230">jump&#45;threading</text>
</g>
<!-- early_cse_memssa&#45;&gt;jump_threading1 -->
<g id="edge5" class="edge">
<title>early_cse_memssa&#45;&gt;jump_threading1</title>
<path fill="none" stroke="black" d="M206.5,-3217.77C206.5,-3210.06 206.5,-3200.79 206.5,-3192.19"/>
<polygon fill="black" stroke="black" points="210,-3192.18 206.5,-3182.18 203,-3192.18 210,-3192.18"/>
</g>
<!-- correlated_prop1 -->
<g id="node18" class="node">
<title>correlated_prop1</title>
<polygon fill="#ffcccc" stroke="#c41230" points="281,-3110.08 132,-3110.08 132,-3074.08 281,-3074.08 281,-3110.08"/>
<text text-anchor="middle" x="206.5" y="-3089.58" font-family="Courier New" font-size="10.00" fill="#c41230">correlated&#45;propagation</text>
</g>
<!-- jump_threading1&#45;&gt;correlated_prop1 -->
<g id="edge6" class="edge">
<title>jump_threading1&#45;&gt;correlated_prop1</title>
<path fill="none" stroke="black" d="M206.5,-3145.77C206.5,-3138.06 206.5,-3128.79 206.5,-3120.19"/>
<polygon fill="black" stroke="black" points="210,-3120.18 206.5,-3110.18 203,-3120.18 210,-3120.18"/>
</g>
<!-- simplifycfg2 -->
<g id="node19" class="node">
<title>simplifycfg2</title>
<polygon fill="#ffcccc" stroke="#c41230" points="263,-3038.08 150,-3038.08 150,-3002.08 263,-3002.08 263,-3038.08"/>
<text text-anchor="middle" x="206.5" y="-3017.58" font-family="Courier New" font-size="10.00" fill="#c41230">simplifycfg&lt;...&gt;</text>
</g>
<!-- correlated_prop1&#45;&gt;simplifycfg2 -->
<g id="edge7" class="edge">
<title>correlated_prop1&#45;&gt;simplifycfg2</title>
<path fill="none" stroke="black" d="M206.5,-3073.77C206.5,-3066.06 206.5,-3056.79 206.5,-3048.19"/>
<polygon fill="black" stroke="black" points="210,-3048.18 206.5,-3038.18 203,-3048.18 210,-3048.18"/>
</g>
<!-- instcombine1 -->
<g id="node20" class="node">
<title>instcombine1</title>
<polygon fill="#ffcccc" stroke="#c41230" points="302,-2966.08 111,-2966.08 111,-2930.08 302,-2930.08 302,-2966.08"/>
<text text-anchor="middle" x="206.5" y="-2945.58" font-family="Courier New" font-size="10.00" fill="#c41230">instcombine&lt;max&#45;iterations=1&gt;</text>
</g>
<!-- simplifycfg2&#45;&gt;instcombine1 -->
<g id="edge8" class="edge">
<title>simplifycfg2&#45;&gt;instcombine1</title>
<path fill="none" stroke="black" d="M206.5,-3001.77C206.5,-2994.06 206.5,-2984.79 206.5,-2976.19"/>
<polygon fill="black" stroke="black" points="210,-2976.18 206.5,-2966.18 203,-2976.18 210,-2976.18"/>
</g>
<!-- gvn1 -->
<g id="node21" class="node">
<title>gvn1</title>
<polygon fill="#ffcccc" stroke="#c41230" points="233.5,-2894.08 179.5,-2894.08 179.5,-2858.08 233.5,-2858.08 233.5,-2894.08"/>
<text text-anchor="middle" x="206.5" y="-2873.58" font-family="Courier New" font-size="10.00" fill="#c41230">gvn&lt;&gt;</text>
</g>
<!-- instcombine1&#45;&gt;gvn1 -->
<g id="edge9" class="edge">
<title>instcombine1&#45;&gt;gvn1</title>
<path fill="none" stroke="black" d="M206.5,-2929.77C206.5,-2922.06 206.5,-2912.79 206.5,-2904.19"/>
<polygon fill="black" stroke="black" points="210,-2904.18 206.5,-2894.18 203,-2904.18 210,-2904.18"/>
</g>
<!-- sccp1 -->
<g id="node22" class="node">
<title>sccp1</title>
<polygon fill="#ffcccc" stroke="#c41230" points="233.5,-2822.08 179.5,-2822.08 179.5,-2786.08 233.5,-2786.08 233.5,-2822.08"/>
<text text-anchor="middle" x="206.5" y="-2801.58" font-family="Courier New" font-size="10.00" fill="#c41230">sccp</text>
</g>
<!-- gvn1&#45;&gt;sccp1 -->
<g id="edge10" class="edge">
<title>gvn1&#45;&gt;sccp1</title>
<path fill="none" stroke="black" d="M206.5,-2857.77C206.5,-2850.06 206.5,-2840.79 206.5,-2832.19"/>
<polygon fill="black" stroke="black" points="210,-2832.18 206.5,-2822.18 203,-2832.18 210,-2832.18"/>
</g>
<!-- adce1 -->
<g id="node23" class="node">
<title>adce1</title>
<polygon fill="#ffcccc" stroke="#c41230" points="233.5,-2750.08 179.5,-2750.08 179.5,-2714.08 233.5,-2714.08 233.5,-2750.08"/>
<text text-anchor="middle" x="206.5" y="-2729.58" font-family="Courier New" font-size="10.00" fill="#c41230">adce</text>
</g>
<!-- sccp1&#45;&gt;adce1 -->
<g id="edge11" class="edge">
<title>sccp1&#45;&gt;adce1</title>
<path fill="none" stroke="black" d="M206.5,-2785.77C206.5,-2778.06 206.5,-2768.79 206.5,-2760.19"/>
<polygon fill="black" stroke="black" points="210,-2760.18 206.5,-2750.18 203,-2760.18 210,-2760.18"/>
</g>
<!-- instcombine2 -->
<g id="node24" class="node">
<title>instcombine2</title>
<polygon fill="#ffcccc" stroke="#c41230" points="302,-2678.08 111,-2678.08 111,-2642.08 302,-2642.08 302,-2678.08"/>
<text text-anchor="middle" x="206.5" y="-2657.58" font-family="Courier New" font-size="10.00" fill="#c41230">instcombine&lt;max&#45;iterations=1&gt;</text>
</g>
<!-- adce1&#45;&gt;instcombine2 -->
<g id="edge12" class="edge">
<title>adce1&#45;&gt;instcombine2</title>
<path fill="none" stroke="black" d="M206.5,-2713.77C206.5,-2706.06 206.5,-2696.79 206.5,-2688.19"/>
<polygon fill="black" stroke="black" points="210,-2688.18 206.5,-2678.18 203,-2688.18 210,-2688.18"/>
</g>
<!-- function_attrs2 -->
<g id="node25" class="node">
<title>function_attrs2</title>
<polygon fill="#ffcccc" stroke="#c41230" points="257,-2606.08 156,-2606.08 156,-2570.08 257,-2570.08 257,-2606.08"/>
<text text-anchor="middle" x="206.5" y="-2585.58" font-family="Courier New" font-size="10.00" fill="#c41230">function&#45;attrs</text>
</g>
<!-- instcombine2&#45;&gt;function_attrs2 -->
<g id="edge16" class="edge">
<title>instcombine2&#45;&gt;function_attrs2</title>
<path fill="none" stroke="black" d="M206.5,-2641.77C206.5,-2634.06 206.5,-2624.79 206.5,-2616.19"/>
<polygon fill="black" stroke="black" points="210,-2616.18 206.5,-2606.18 203,-2616.18 210,-2616.18"/>
</g>
<!-- func_should_not_run -->
<g id="node26" class="node">
<title>func_should_not_run</title>
<polygon fill="#ffcccc" stroke="#c41230" points="362,-2534.08 51,-2534.08 51,-2498.08 362,-2498.08 362,-2534.08"/>
<text text-anchor="middle" x="206.5" y="-2513.58" font-family="Courier New" font-size="10.00" fill="#c41230">function(require&lt;should&#45;not&#45;run&#45;function&#45;passes&gt;)</text>
</g>
<!-- function_attrs2&#45;&gt;func_should_not_run -->
<g id="edge17" class="edge">
<title>function_attrs2&#45;&gt;func_should_not_run</title>
<path fill="none" stroke="black" d="M206.5,-2569.77C206.5,-2562.06 206.5,-2552.79 206.5,-2544.19"/>
<polygon fill="black" stroke="black" points="210,-2544.18 206.5,-2534.18 203,-2544.18 210,-2544.18"/>
</g>
<!-- FilPizlonatorPass -->
<g id="node27" class="node">
<title>FilPizlonatorPass</title>
<polygon fill="#c41230" stroke="#c41230" stroke-width="2" points="282.15,-2432.62 282.15,-2447.53 237.84,-2458.08 175.16,-2458.08 130.85,-2447.53 130.85,-2432.62 175.16,-2422.08 237.84,-2422.08 282.15,-2432.62"/>
<polygon fill="none" stroke="#c41230" stroke-width="2" points="286.15,-2429.46 286.15,-2450.7 238.3,-2462.08 174.7,-2462.08 126.85,-2450.7 126.85,-2429.46 174.7,-2418.08 238.3,-2418.08 286.15,-2429.46"/>
<text text-anchor="middle" x="206.5" y="-2437.58" font-family="Courier New" font-size="10.00" fill="white">FilPizlonatorPass</text>
</g>
<!-- func_should_not_run&#45;&gt;FilPizlonatorPass -->
<g id="edge26" class="edge">
<title>func_should_not_run&#45;&gt;FilPizlonatorPass</title>
<path fill="none" stroke="black" d="M206.5,-2497.92C206.5,-2490.24 206.5,-2480.96 206.5,-2472.13"/>
<polygon fill="black" stroke="black" points="210,-2472.11 206.5,-2462.11 203,-2472.11 210,-2472.11"/>
</g>
<!-- inferattrs -->
<g id="node28" class="node">
<title>inferattrs</title>
<polygon fill="white" stroke="black" points="245,-2371.08 168,-2371.08 168,-2335.08 245,-2335.08 245,-2371.08"/>
<text text-anchor="middle" x="206.5" y="-2350.58" font-family="Courier New" font-size="10.00">inferattrs</text>
</g>
<!-- FilPizlonatorPass&#45;&gt;inferattrs -->
<g id="edge58" class="edge">
<title>FilPizlonatorPass&#45;&gt;inferattrs</title>
<path fill="none" stroke="#c41230" stroke-width="2" d="M206.5,-2418.07C206.5,-2407 206.5,-2393.3 206.5,-2381.41"/>
<polygon fill="#c41230" stroke="#c41230" stroke-width="2" points="210,-2381.14 206.5,-2371.14 203,-2381.14 210,-2381.14"/>
</g>
<!-- coro_early -->
<g id="node29" class="node">
<title>coro_early</title>
<polygon fill="white" stroke="black" points="245,-2299.08 168,-2299.08 168,-2263.08 245,-2263.08 245,-2299.08"/>
<text text-anchor="middle" x="206.5" y="-2278.58" font-family="Courier New" font-size="10.00">coro&#45;early</text>
</g>
<!-- inferattrs&#45;&gt;coro_early -->
<g id="edge33" class="edge">
<title>inferattrs&#45;&gt;coro_early</title>
<path fill="none" stroke="black" d="M206.5,-2334.77C206.5,-2327.06 206.5,-2317.79 206.5,-2309.19"/>
<polygon fill="black" stroke="black" points="210,-2309.18 206.5,-2299.18 203,-2309.18 210,-2309.18"/>
</g>
<!-- ee_instrument -->
<g id="node30" class="node">
<title>ee_instrument</title>
<polygon fill="white" stroke="black" points="260,-2224.08 153,-2224.08 153,-2188.08 260,-2188.08 260,-2224.08"/>
<text text-anchor="middle" x="206.5" y="-2203.58" font-family="Courier New" font-size="10.00">ee&#45;instrument&lt;&gt;</text>
</g>
<!-- coro_early&#45;&gt;ee_instrument -->
<g id="edge34" class="edge">
<title>coro_early&#45;&gt;ee_instrument</title>
<path fill="none" stroke="black" d="M206.5,-2262.78C206.5,-2254.32 206.5,-2243.95 206.5,-2234.45"/>
<polygon fill="black" stroke="black" points="210,-2234.25 206.5,-2224.25 203,-2234.25 210,-2234.25"/>
</g>
<!-- lower_expect2 -->
<g id="node31" class="node">
<title>lower_expect2</title>
<polygon fill="white" stroke="black" points="251,-2152.08 162,-2152.08 162,-2116.08 251,-2116.08 251,-2152.08"/>
<text text-anchor="middle" x="206.5" y="-2131.58" font-family="Courier New" font-size="10.00">lower&#45;expect</text>
</g>
<!-- ee_instrument&#45;&gt;lower_expect2 -->
<g id="edge27" class="edge">
<title>ee_instrument&#45;&gt;lower_expect2</title>
<path fill="none" stroke="black" d="M206.5,-2187.77C206.5,-2180.06 206.5,-2170.79 206.5,-2162.19"/>
<polygon fill="black" stroke="black" points="210,-2162.18 206.5,-2152.18 203,-2162.18 210,-2162.18"/>
</g>
<!-- simplifycfg3 -->
<g id="node32" class="node">
<title>simplifycfg3</title>
<polygon fill="white" stroke="black" points="263,-2080.08 150,-2080.08 150,-2044.08 263,-2044.08 263,-2080.08"/>
<text text-anchor="middle" x="206.5" y="-2059.58" font-family="Courier New" font-size="10.00">simplifycfg&lt;...&gt;</text>
</g>
<!-- lower_expect2&#45;&gt;simplifycfg3 -->
<g id="edge28" class="edge">
<title>lower_expect2&#45;&gt;simplifycfg3</title>
<path fill="none" stroke="black" d="M206.5,-2115.77C206.5,-2108.06 206.5,-2098.79 206.5,-2090.19"/>
<polygon fill="black" stroke="black" points="210,-2090.18 206.5,-2080.18 203,-2090.18 210,-2090.18"/>
</g>
<!-- sroa3 -->
<g id="node33" class="node">
<title>sroa3</title>
<polygon fill="white" stroke="black" points="263,-2008.08 150,-2008.08 150,-1972.08 263,-1972.08 263,-2008.08"/>
<text text-anchor="middle" x="206.5" y="-1987.58" font-family="Courier New" font-size="10.00">sroa&lt;modify&#45;cfg&gt;</text>
</g>
<!-- simplifycfg3&#45;&gt;sroa3 -->
<g id="edge29" class="edge">
<title>simplifycfg3&#45;&gt;sroa3</title>
<path fill="none" stroke="black" d="M206.5,-2043.77C206.5,-2036.06 206.5,-2026.79 206.5,-2018.19"/>
<polygon fill="black" stroke="black" points="210,-2018.18 206.5,-2008.18 203,-2018.18 210,-2018.18"/>
</g>
<!-- early_cse2 -->
<g id="node34" class="node">
<title>early_cse2</title>
<polygon fill="white" stroke="black" points="248,-1936.08 165,-1936.08 165,-1900.08 248,-1900.08 248,-1936.08"/>
<text text-anchor="middle" x="206.5" y="-1915.58" font-family="Courier New" font-size="10.00">early&#45;cse&lt;&gt;</text>
</g>
<!-- sroa3&#45;&gt;early_cse2 -->
<g id="edge30" class="edge">
<title>sroa3&#45;&gt;early_cse2</title>
<path fill="none" stroke="black" d="M206.5,-1971.77C206.5,-1964.06 206.5,-1954.79 206.5,-1946.19"/>
<polygon fill="black" stroke="black" points="210,-1946.18 206.5,-1936.18 203,-1946.18 210,-1946.18"/>
</g>
<!-- openmp_opt -->
<g id="node35" class="node">
<title>openmp_opt</title>
<polygon fill="white" stroke="black" points="245,-1864.08 168,-1864.08 168,-1828.08 245,-1828.08 245,-1864.08"/>
<text text-anchor="middle" x="206.5" y="-1843.58" font-family="Courier New" font-size="10.00">openmp&#45;opt</text>
</g>
<!-- early_cse2&#45;&gt;openmp_opt -->
<g id="edge35" class="edge">
<title>early_cse2&#45;&gt;openmp_opt</title>
<path fill="none" stroke="black" d="M206.5,-1899.77C206.5,-1892.06 206.5,-1882.79 206.5,-1874.19"/>
<polygon fill="black" stroke="black" points="210,-1874.18 206.5,-1864.18 203,-1874.18 210,-1874.18"/>
</g>
<!-- ipsccp -->
<g id="node36" class="node">
<title>ipsccp</title>
<polygon fill="white" stroke="black" points="233.5,-1792.08 179.5,-1792.08 179.5,-1756.08 233.5,-1756.08 233.5,-1792.08"/>
<text text-anchor="middle" x="206.5" y="-1771.58" font-family="Courier New" font-size="10.00">ipsccp</text>
</g>
<!-- openmp_opt&#45;&gt;ipsccp -->
<g id="edge36" class="edge">
<title>openmp_opt&#45;&gt;ipsccp</title>
<path fill="none" stroke="black" d="M206.5,-1827.77C206.5,-1820.06 206.5,-1810.79 206.5,-1802.19"/>
<polygon fill="black" stroke="black" points="210,-1802.18 206.5,-1792.18 203,-1802.18 210,-1802.18"/>
</g>
<!-- called_value_prop -->
<g id="node37" class="node">
<title>called_value_prop</title>
<polygon fill="white" stroke="black" points="287,-1720.08 126,-1720.08 126,-1684.08 287,-1684.08 287,-1720.08"/>
<text text-anchor="middle" x="206.5" y="-1699.58" font-family="Courier New" font-size="10.00">called&#45;value&#45;propagation</text>
</g>
<!-- ipsccp&#45;&gt;called_value_prop -->
<g id="edge37" class="edge">
<title>ipsccp&#45;&gt;called_value_prop</title>
<path fill="none" stroke="black" d="M206.5,-1755.77C206.5,-1748.06 206.5,-1738.79 206.5,-1730.19"/>
<polygon fill="black" stroke="black" points="210,-1730.18 206.5,-1720.18 203,-1730.18 210,-1730.18"/>
</g>
<!-- globalopt1 -->
<g id="node38" class="node">
<title>globalopt1</title>
<polygon fill="white" stroke="black" points="242,-1648.08 171,-1648.08 171,-1612.08 242,-1612.08 242,-1648.08"/>
<text text-anchor="middle" x="206.5" y="-1627.58" font-family="Courier New" font-size="10.00">globalopt</text>
</g>
<!-- called_value_prop&#45;&gt;globalopt1 -->
<g id="edge38" class="edge">
<title>called_value_prop&#45;&gt;globalopt1</title>
<path fill="none" stroke="black" d="M206.5,-1683.77C206.5,-1676.06 206.5,-1666.79 206.5,-1658.19"/>
<polygon fill="black" stroke="black" points="210,-1658.18 206.5,-1648.18 203,-1658.18 210,-1658.18"/>
</g>
<!-- mem2reg -->
<g id="node39" class="node">
<title>mem2reg</title>
<polygon fill="white" stroke="black" points="236,-1573.08 177,-1573.08 177,-1537.08 236,-1537.08 236,-1573.08"/>
<text text-anchor="middle" x="206.5" y="-1552.58" font-family="Courier New" font-size="10.00">mem2reg</text>
</g>
<!-- globalopt1&#45;&gt;mem2reg -->
<g id="edge39" class="edge">
<title>globalopt1&#45;&gt;mem2reg</title>
<path fill="none" stroke="black" d="M206.5,-1611.78C206.5,-1603.32 206.5,-1592.95 206.5,-1583.45"/>
<polygon fill="black" stroke="black" points="210,-1583.25 206.5,-1573.25 203,-1583.25 210,-1583.25"/>
</g>
<!-- instcombine3 -->
<g id="node40" class="node">
<title>instcombine3</title>
<polygon fill="white" stroke="black" points="302,-1501.08 111,-1501.08 111,-1465.08 302,-1465.08 302,-1501.08"/>
<text text-anchor="middle" x="206.5" y="-1480.58" font-family="Courier New" font-size="10.00">instcombine&lt;max&#45;iterations=1&gt;</text>
</g>
<!-- mem2reg&#45;&gt;instcombine3 -->
<g id="edge31" class="edge">
<title>mem2reg&#45;&gt;instcombine3</title>
<path fill="none" stroke="black" d="M206.5,-1536.77C206.5,-1529.06 206.5,-1519.79 206.5,-1511.19"/>
<polygon fill="black" stroke="black" points="210,-1511.18 206.5,-1501.18 203,-1511.18 210,-1511.18"/>
</g>
<!-- simplifycfg4 -->
<g id="node41" class="node">
<title>simplifycfg4</title>
<polygon fill="white" stroke="black" points="263,-1429.08 150,-1429.08 150,-1393.08 263,-1393.08 263,-1429.08"/>
<text text-anchor="middle" x="206.5" y="-1408.58" font-family="Courier New" font-size="10.00">simplifycfg&lt;...&gt;</text>
</g>
<!-- instcombine3&#45;&gt;simplifycfg4 -->
<g id="edge32" class="edge">
<title>instcombine3&#45;&gt;simplifycfg4</title>
<path fill="none" stroke="black" d="M206.5,-1464.77C206.5,-1457.06 206.5,-1447.79 206.5,-1439.19"/>
<polygon fill="black" stroke="black" points="210,-1439.18 206.5,-1429.18 203,-1439.18 210,-1439.18"/>
</g>
<!-- always_inline -->
<g id="node42" class="node">
<title>always_inline</title>
<polygon fill="white" stroke="black" points="254,-1357.08 159,-1357.08 159,-1321.08 254,-1321.08 254,-1357.08"/>
<text text-anchor="middle" x="206.5" y="-1336.58" font-family="Courier New" font-size="10.00">always&#45;inline</text>
</g>
<!-- simplifycfg4&#45;&gt;always_inline -->
<g id="edge40" class="edge">
<title>simplifycfg4&#45;&gt;always_inline</title>
<path fill="none" stroke="black" d="M206.5,-1392.77C206.5,-1385.06 206.5,-1375.79 206.5,-1367.19"/>
<polygon fill="black" stroke="black" points="210,-1367.18 206.5,-1357.18 203,-1367.18 210,-1367.18"/>
</g>
<!-- require_globals_aa2 -->
<g id="node43" class="node">
<title>require_globals_aa2</title>
<polygon fill="white" stroke="black" points="272,-1285.08 141,-1285.08 141,-1249.08 272,-1249.08 272,-1285.08"/>
<text text-anchor="middle" x="206.5" y="-1264.58" font-family="Courier New" font-size="10.00">require&lt;globals&#45;aa&gt;</text>
</g>
<!-- always_inline&#45;&gt;require_globals_aa2 -->
<g id="edge41" class="edge">
<title>always_inline&#45;&gt;require_globals_aa2</title>
<path fill="none" stroke="black" d="M206.5,-1320.77C206.5,-1313.06 206.5,-1303.79 206.5,-1295.19"/>
<polygon fill="black" stroke="black" points="210,-1295.18 206.5,-1285.18 203,-1295.18 210,-1295.18"/>
</g>
<!-- func_invalidate_aa2 -->
<g id="node44" class="node">
<title>func_invalidate_aa2</title>
<polygon fill="white" stroke="black" points="287,-1213.08 126,-1213.08 126,-1177.08 287,-1177.08 287,-1213.08"/>
<text text-anchor="middle" x="206.5" y="-1192.58" font-family="Courier New" font-size="10.00">function(invalidate&lt;aa&gt;)</text>
</g>
<!-- require_globals_aa2&#45;&gt;func_invalidate_aa2 -->
<g id="edge42" class="edge">
<title>require_globals_aa2&#45;&gt;func_invalidate_aa2</title>
<path fill="none" stroke="black" d="M206.5,-1248.77C206.5,-1241.06 206.5,-1231.79 206.5,-1223.19"/>
<polygon fill="black" stroke="black" points="210,-1223.18 206.5,-1213.18 203,-1223.18 210,-1223.18"/>
</g>
<!-- require_profile_summary2 -->
<g id="node45" class="node">
<title>require_profile_summary2</title>
<polygon fill="white" stroke="black" points="287,-1141.08 126,-1141.08 126,-1105.08 287,-1105.08 287,-1141.08"/>
<text text-anchor="middle" x="206.5" y="-1120.58" font-family="Courier New" font-size="10.00">require&lt;profile&#45;summary&gt;</text>
</g>
<!-- func_invalidate_aa2&#45;&gt;require_profile_summary2 -->
<g id="edge43" class="edge">
<title>func_invalidate_aa2&#45;&gt;require_profile_summary2</title>
<path fill="none" stroke="black" d="M206.5,-1176.77C206.5,-1169.06 206.5,-1159.79 206.5,-1151.19"/>
<polygon fill="black" stroke="black" points="210,-1151.18 206.5,-1141.18 203,-1151.18 210,-1151.18"/>
</g>
<!-- cgscc_passes -->
<g id="node46" class="node">
<title>cgscc_passes</title>
<ellipse fill="white" stroke="black" cx="206.5" cy="-1029.31" rx="152.06" ry="36.54"/>
<text text-anchor="middle" x="206.5" y="-1043.31" font-family="Courier New" font-size="10.00">inline, function&#45;attrs,</text>
<text text-anchor="middle" x="206.5" y="-1032.31" font-family="Courier New" font-size="10.00">openmp&#45;opt&#45;cgscc,</text>
<text text-anchor="middle" x="206.5" y="-1021.31" font-family="Courier New" font-size="10.00">function&lt;...&gt;(many passes),</text>
<text text-anchor="middle" x="206.5" y="-1010.31" font-family="Courier New" font-size="10.00">coro&#45;split, coro&#45;annotation&#45;elide</text>
</g>
<!-- require_profile_summary2&#45;&gt;cgscc_passes -->
<g id="edge44" class="edge">
<title>require_profile_summary2&#45;&gt;cgscc_passes</title>
<path fill="none" stroke="black" d="M206.5,-1104.82C206.5,-1096.64 206.5,-1086.44 206.5,-1076.24"/>
<polygon fill="black" stroke="black" points="210,-1076.12 206.5,-1066.12 203,-1076.12 210,-1076.12"/>
</g>
<!-- deadargelim -->
<g id="node47" class="node">
<title>deadargelim</title>
<polygon fill="white" stroke="black" points="248,-956.54 165,-956.54 165,-920.54 248,-920.54 248,-956.54"/>
<text text-anchor="middle" x="206.5" y="-936.04" font-family="Courier New" font-size="10.00">deadargelim</text>
</g>
<!-- cgscc_passes&#45;&gt;deadargelim -->
<g id="edge45" class="edge">
<title>cgscc_passes&#45;&gt;deadargelim</title>
<path fill="none" stroke="black" d="M206.5,-992.46C206.5,-983.89 206.5,-974.89 206.5,-966.78"/>
<polygon fill="black" stroke="black" points="210,-966.76 206.5,-956.76 203,-966.76 210,-966.76"/>
</g>
<!-- coro_cleanup -->
<g id="node48" class="node">
<title>coro_cleanup</title>
<polygon fill="white" stroke="black" points="251,-884.54 162,-884.54 162,-848.54 251,-848.54 251,-884.54"/>
<text text-anchor="middle" x="206.5" y="-864.04" font-family="Courier New" font-size="10.00">coro&#45;cleanup</text>
</g>
<!-- deadargelim&#45;&gt;coro_cleanup -->
<g id="edge46" class="edge">
<title>deadargelim&#45;&gt;coro_cleanup</title>
<path fill="none" stroke="black" d="M206.5,-920.24C206.5,-912.52 206.5,-903.25 206.5,-894.65"/>
<polygon fill="black" stroke="black" points="210,-894.64 206.5,-884.64 203,-894.64 210,-894.64"/>
</g>
<!-- globalopt2 -->
<g id="node49" class="node">
<title>globalopt2</title>
<polygon fill="white" stroke="black" points="242,-812.54 171,-812.54 171,-776.54 242,-776.54 242,-812.54"/>
<text text-anchor="middle" x="206.5" y="-792.04" font-family="Courier New" font-size="10.00">globalopt</text>
</g>
<!-- coro_cleanup&#45;&gt;globalopt2 -->
<g id="edge47" class="edge">
<title>coro_cleanup&#45;&gt;globalopt2</title>
<path fill="none" stroke="black" d="M206.5,-848.24C206.5,-840.52 206.5,-831.25 206.5,-822.65"/>
<polygon fill="black" stroke="black" points="210,-822.64 206.5,-812.64 203,-822.64 210,-822.64"/>
</g>
<!-- globaldce1 -->
<g id="node50" class="node">
<title>globaldce1</title>
<polygon fill="white" stroke="black" points="242,-740.54 171,-740.54 171,-704.54 242,-704.54 242,-740.54"/>
<text text-anchor="middle" x="206.5" y="-720.04" font-family="Courier New" font-size="10.00">globaldce</text>
</g>
<!-- globalopt2&#45;&gt;globaldce1 -->
<g id="edge48" class="edge">
<title>globalopt2&#45;&gt;globaldce1</title>
<path fill="none" stroke="black" d="M206.5,-776.24C206.5,-768.52 206.5,-759.25 206.5,-750.65"/>
<polygon fill="black" stroke="black" points="210,-750.64 206.5,-740.64 203,-750.64 210,-750.64"/>
</g>
<!-- elim_avail_extern -->
<g id="node51" class="node">
<title>elim_avail_extern</title>
<polygon fill="white" stroke="black" points="266,-668.54 147,-668.54 147,-632.54 266,-632.54 266,-668.54"/>
<text text-anchor="middle" x="206.5" y="-648.04" font-family="Courier New" font-size="10.00">elim&#45;avail&#45;extern</text>
</g>
<!-- globaldce1&#45;&gt;elim_avail_extern -->
<g id="edge49" class="edge">
<title>globaldce1&#45;&gt;elim_avail_extern</title>
<path fill="none" stroke="black" d="M206.5,-704.24C206.5,-696.52 206.5,-687.25 206.5,-678.65"/>
<polygon fill="black" stroke="black" points="210,-678.64 206.5,-668.64 203,-678.64 210,-678.64"/>
</g>
<!-- rpo_function_attrs -->
<g id="node52" class="node">
<title>rpo_function_attrs</title>
<polygon fill="white" stroke="black" points="269,-596.54 144,-596.54 144,-560.54 269,-560.54 269,-596.54"/>
<text text-anchor="middle" x="206.5" y="-576.04" font-family="Courier New" font-size="10.00">rpo&#45;function&#45;attrs</text>
</g>
<!-- elim_avail_extern&#45;&gt;rpo_function_attrs -->
<g id="edge50" class="edge">
<title>elim_avail_extern&#45;&gt;rpo_function_attrs</title>
<path fill="none" stroke="black" d="M206.5,-632.24C206.5,-624.52 206.5,-615.25 206.5,-606.65"/>
<polygon fill="black" stroke="black" points="210,-606.64 206.5,-596.64 203,-606.64 210,-606.64"/>
</g>
<!-- recompute_globalsaa -->
<g id="node53" class="node">
<title>recompute_globalsaa</title>
<polygon fill="white" stroke="black" points="272,-524.54 141,-524.54 141,-488.54 272,-488.54 272,-524.54"/>
<text text-anchor="middle" x="206.5" y="-504.04" font-family="Courier New" font-size="10.00">recompute&#45;globalsaa</text>
</g>
<!-- rpo_function_attrs&#45;&gt;recompute_globalsaa -->
<g id="edge51" class="edge">
<title>rpo_function_attrs&#45;&gt;recompute_globalsaa</title>
<path fill="none" stroke="black" d="M206.5,-560.24C206.5,-552.52 206.5,-543.25 206.5,-534.65"/>
<polygon fill="black" stroke="black" points="210,-534.64 206.5,-524.64 203,-534.64 210,-534.64"/>
</g>
<!-- final_func_passes -->
<g id="node54" class="node">
<title>final_func_passes</title>
<ellipse fill="white" stroke="black" cx="206.5" cy="-412.77" rx="169" ry="36.54"/>
<text text-anchor="middle" x="206.5" y="-426.77" font-family="Courier New" font-size="10.00">float2int, lower&#45;constant&#45;intrinsics,</text>
<text text-anchor="middle" x="206.5" y="-415.77" font-family="Courier New" font-size="10.00">loop passes, instsimplify,</text>
<text text-anchor="middle" x="206.5" y="-404.77" font-family="Courier New" font-size="10.00">div&#45;rem&#45;pairs, tailcallelim,</text>
<text text-anchor="middle" x="206.5" y="-393.77" font-family="Courier New" font-size="10.00">simplifycfg&lt;...&gt;</text>
</g>
<!-- recompute_globalsaa&#45;&gt;final_func_passes -->
<g id="edge52" class="edge">
<title>recompute_globalsaa&#45;&gt;final_func_passes</title>
<path fill="none" stroke="black" d="M206.5,-488.28C206.5,-480.1 206.5,-469.9 206.5,-459.7"/>
<polygon fill="black" stroke="black" points="210,-459.58 206.5,-449.58 203,-459.58 210,-459.58"/>
</g>
<!-- globaldce2 -->
<g id="node55" class="node">
<title>globaldce2</title>
<polygon fill="white" stroke="black" points="242,-340 171,-340 171,-304 242,-304 242,-340"/>
<text text-anchor="middle" x="206.5" y="-319.5" font-family="Courier New" font-size="10.00">globaldce</text>
</g>
<!-- final_func_passes&#45;&gt;globaldce2 -->
<g id="edge53" class="edge">
<title>final_func_passes&#45;&gt;globaldce2</title>
<path fill="none" stroke="black" d="M206.5,-375.92C206.5,-367.35 206.5,-358.35 206.5,-350.24"/>
<polygon fill="black" stroke="black" points="210,-350.22 206.5,-340.22 203,-350.22 210,-350.22"/>
</g>
<!-- constmerge -->
<g id="node56" class="node">
<title>constmerge</title>
<polygon fill="white" stroke="black" points="245,-268 168,-268 168,-232 245,-232 245,-268"/>
<text text-anchor="middle" x="206.5" y="-247.5" font-family="Courier New" font-size="10.00">constmerge</text>
</g>
<!-- globaldce2&#45;&gt;constmerge -->
<g id="edge54" class="edge">
<title>globaldce2&#45;&gt;constmerge</title>
<path fill="none" stroke="black" d="M206.5,-303.7C206.5,-295.98 206.5,-286.71 206.5,-278.11"/>
<polygon fill="black" stroke="black" points="210,-278.1 206.5,-268.1 203,-278.1 210,-278.1"/>
</g>
<!-- cg_profile -->
<g id="node57" class="node">
<title>cg_profile</title>
<polygon fill="white" stroke="black" points="245,-196 168,-196 168,-160 245,-160 245,-196"/>
<text text-anchor="middle" x="206.5" y="-175.5" font-family="Courier New" font-size="10.00">cg&#45;profile</text>
</g>
<!-- constmerge&#45;&gt;cg_profile -->
<g id="edge55" class="edge">
<title>constmerge&#45;&gt;cg_profile</title>
<path fill="none" stroke="black" d="M206.5,-231.7C206.5,-223.98 206.5,-214.71 206.5,-206.11"/>
<polygon fill="black" stroke="black" points="210,-206.1 206.5,-196.1 203,-206.1 210,-206.1"/>
</g>
<!-- rel_lookup_table -->
<g id="node58" class="node">
<title>rel_lookup_table</title>
<polygon fill="white" stroke="black" points="293,-124 120,-124 120,-88 293,-88 293,-124"/>
<text text-anchor="middle" x="206.5" y="-103.5" font-family="Courier New" font-size="10.00">rel&#45;lookup&#45;table&#45;converter</text>
</g>
<!-- cg_profile&#45;&gt;rel_lookup_table -->
<g id="edge56" class="edge">
<title>cg_profile&#45;&gt;rel_lookup_table</title>
<path fill="none" stroke="black" d="M206.5,-159.7C206.5,-151.98 206.5,-142.71 206.5,-134.11"/>
<polygon fill="black" stroke="black" points="210,-134.1 206.5,-124.1 203,-134.1 210,-134.1"/>
</g>
<!-- annotation_remarks -->
<g id="node59" class="node">
<title>annotation_remarks</title>
<polygon fill="white" stroke="black" points="299,-52 114,-52 114,-16 299,-16 299,-52"/>
<text text-anchor="middle" x="206.5" y="-31.5" font-family="Courier New" font-size="10.00">function(annotation&#45;remarks)</text>
</g>
<!-- rel_lookup_table&#45;&gt;annotation_remarks -->
<g id="edge57" class="edge">
<title>rel_lookup_table&#45;&gt;annotation_remarks</title>
<path fill="none" stroke="black" d="M206.5,-87.7C206.5,-79.98 206.5,-70.71 206.5,-62.11"/>
<polygon fill="black" stroke="black" points="210,-62.1 206.5,-52.1 203,-62.1 210,-62.1"/>
</g>
</g>
</svg>
